<svg width="25" height="12" viewBox="0 0 25 12" fill="none" xmlns="http://www.w3.org/2000/svg">
<path opacity="0.35" d="M1.172 2.66935C1.172 1.47273 2.14205 0.502686 3.33866 0.502686H20.0053C21.2019 0.502686 22.172 1.47274 22.172 2.66935V8.66935C22.172 9.86597 21.2019 10.836 20.0053 10.836H3.33866C2.14205 10.836 1.172 9.86597 1.172 8.66935V2.66935Z" stroke="white"/>
<path opacity="0.4" d="M23.672 3.66936V7.66936C24.4767 7.33058 25 6.54249 25 5.66936C25 4.79622 24.4767 4.00813 23.672 3.66936Z" fill="white"/>
<path d="M2.672 3.33602C2.672 2.59964 3.26895 2.00269 4.00533 2.00269H19.3387C20.075 2.00269 20.672 2.59964 20.672 3.33602V8.00268C20.672 8.73906 20.075 9.33602 19.3387 9.33602H4.00533C3.26895 9.33602 2.672 8.73907 2.672 8.00269V3.33602Z" fill="white"/>
</svg>
