<svg width="24" height="24" viewBox="0 0 24 24" fill="none" xmlns="http://www.w3.org/2000/svg">
<path d="M3.17017 7.44L12.0002 12.55L20.7701 7.46997" stroke="white" stroke-width="1.5" stroke-linecap="round" stroke-linejoin="round"/>
<path d="M12.0002 21.61V12.54" stroke="white" stroke-width="1.5" stroke-linecap="round" stroke-linejoin="round"/>
<path d="M2.39014 9.17001C2.39014 7.79001 3.38012 6.11003 4.59012 5.44003L9.93011 2.47C11.0701 1.84 12.9401 1.84 14.0801 2.47L19.4201 5.44003C20.6301 6.11003 21.6201 7.79001 21.6201 9.17001V14.82C21.6201 16.2 20.6301 17.88 19.4201 18.55L14.0801 21.52C12.9401 22.15 11.0701 22.15 9.93011 21.52L4.59012 18.55C3.38012 17.88 2.39014 16.2 2.39014 14.82V14" stroke="white" stroke-width="1.5" stroke-linecap="round" stroke-linejoin="round"/>
<path d="M17 13.24V9.58002L10.93 6.07001L9.88 5.46997L7.51001 4.09998" stroke="white" stroke-width="1.5" stroke-linecap="round" stroke-linejoin="round"/>
</svg>
