<svg width="104" height="104" viewBox="0 0 104 104" fill="none" xmlns="http://www.w3.org/2000/svg">
<path fill-rule="evenodd" clip-rule="evenodd" d="M27.625 11.375C27.625 7.78515 30.5351 4.875 34.125 4.875C37.7148 4.875 40.625 7.78515 40.625 11.375C40.625 14.9649 37.7148 17.875 34.125 17.875C30.5351 17.875 27.625 14.9649 27.625 11.375Z" fill="#403F3E"/>
<path d="M68.9231 0.857684C71.0884 0.0535823 73.6401 0.867962 74.7672 3.03826C79.2819 11.7308 78.8724 19.0445 75.3665 25.6885C74.5383 27.258 73.618 28.4956 72.6598 29.5086C84.1604 38.5106 92.0631 53.2278 92.8579 67.8514C94.0439 68.049 95.161 68.6518 95.9769 69.6494L98.8741 73.1921C100.701 75.4258 100.377 79.0039 97.5559 80.4892C95.5329 81.5544 93.2985 82.4196 90.9027 82.8958C87.5169 91.6589 77.4476 95.4504 67.7697 95.4751L17.1721 95.604C11.192 95.6193 7.11816 89.5568 9.40657 84.0479L28.9746 36.9418C32.4962 28.4643 39.2165 20.8095 48.4187 20.7329C52.1005 20.7022 55.6893 21.2616 59.1287 22.3175C59.7744 21.8406 60.4437 21.2901 61.1453 20.628C63.7866 18.1353 64.4124 15.908 64.3284 14.0064C64.2387 11.9748 63.3407 10.092 62.4335 8.2643C61.2132 5.80573 62.5745 3.21523 64.9022 2.35085L68.9231 0.857684Z" fill="#403F3E"/>
<path d="M100.75 48.75C100.75 50.5449 99.2949 52 97.5 52C95.7051 52 94.25 50.5449 94.25 48.75C94.25 46.9551 95.7051 45.5 97.5 45.5C99.2949 45.5 100.75 46.9551 100.75 48.75Z" fill="#403F3E"/>
<path d="M10.5016 30.3797C11.1208 28.8734 13.2542 28.8734 13.8734 30.3797L14.8942 32.8629C15.0793 33.3132 15.4368 33.6707 15.8871 33.8558L18.3703 34.8766C19.8766 35.4958 19.8766 37.6292 18.3703 38.2484L15.8871 39.2692C15.4368 39.4543 15.0793 39.8118 14.8942 40.2621L13.8734 42.7453C13.2542 44.2516 11.1208 44.2516 10.5016 42.7453L9.48078 40.2621C9.29569 39.8118 8.93819 39.4543 8.48794 39.2692L6.00474 38.2484C4.49842 37.6292 4.49842 35.4958 6.00474 34.8766L8.48794 33.8558C8.93819 33.6707 9.29569 33.3132 9.48078 32.8629L10.5016 30.3797Z" fill="#403F3E"/>
<path d="M90.0998 20.6477C90.7289 19.1174 92.8961 19.1174 93.5252 20.6477L94.055 21.9364C94.243 22.3938 94.6062 22.757 95.0636 22.945L96.3523 23.4748C97.8826 24.1039 97.8826 26.2711 96.3523 26.9002L95.0636 27.43C94.6062 27.618 94.243 27.9812 94.055 28.4386L93.5252 29.7273C92.8961 31.2576 90.7289 31.2576 90.0998 29.7273L89.57 28.4386C89.382 27.9812 89.0188 27.618 88.5614 27.43L87.2727 26.9002C85.7424 26.2711 85.7424 24.1039 87.2727 23.4748L88.5614 22.945C89.0188 22.757 89.382 22.3938 89.57 21.9364L90.0998 20.6477Z" fill="#403F3E"/>
<path d="M23.311 59.0476L31.976 38.1885C32.3757 37.2262 32.8119 36.2919 33.2825 35.3926C30.2696 45.0616 33.0219 58.7632 41.3888 71.0625C50.1051 83.8755 62.4925 91.6061 72.8885 91.8244C71.2357 92.0865 69.5161 92.2206 67.7614 92.2251L41.4909 92.292C22.6713 82.2624 21.7206 65.5695 23.311 59.0476Z" fill="#78C4A4"/>
<path d="M19.7591 67.5982L12.4079 85.2947C11.0155 88.6466 13.4903 92.3634 17.1637 92.354L35.2673 92.3079C24.595 84.9257 20.6674 75.2703 19.7591 67.5982Z" fill="#78C4A4"/>
<path d="M30.875 11.375C30.875 9.58009 32.3301 8.12501 34.125 8.12501C35.9199 8.12501 37.375 9.58009 37.375 11.375C37.375 13.1699 35.9199 14.625 34.125 14.625C32.3301 14.625 30.875 13.1699 30.875 11.375Z" fill="#F0ECE9"/>
<path d="M45.5 63.375C45.5 61.5801 46.9551 60.125 48.75 60.125C50.5449 60.125 52 61.5801 52 63.375C52 65.1699 50.5449 66.625 48.75 66.625C46.9551 66.625 45.5 65.1699 45.5 63.375Z" fill="#F0ECE9"/>
<path d="M70.0545 3.9044C70.8112 3.6234 71.5736 3.94035 71.883 4.53623C75.9282 12.3248 75.4791 18.5111 72.4921 24.1718C70.659 27.6458 68.6248 28.8761 66.2318 30.3234C65.3775 30.8401 64.4774 31.3845 63.5245 32.0685C61.74 33.3494 60.0108 35.0251 58.5258 37.8016C57.0605 40.5414 55.868 44.2871 55.0282 49.6664C54.8267 50.9568 53.4372 51.5704 52.4528 51.0018L47.7395 48.2791C47.1262 47.9249 46.8226 47.2232 46.9743 46.5574C49.4981 35.4779 51.7271 31.6166 53.9662 29.5592C54.9955 28.6134 56.0682 28.001 57.4324 27.2222C57.5944 27.1297 57.7605 27.0349 57.9311 26.9369C59.5184 26.0252 61.3353 24.9175 63.376 22.9916C66.6273 19.9232 67.7054 16.809 67.5753 13.863C67.4517 11.0642 66.2316 8.60632 65.3604 6.85113L65.3446 6.81936C65.1942 6.51639 65.2096 6.24972 65.3079 6.02809C65.4125 5.7925 65.6443 5.54213 66.0336 5.39757L70.0545 3.9044Z" fill="#F0ECE9"/>
<path d="M68.9748 46.6477C69.6039 45.1174 71.7711 45.1174 72.4002 46.6477L72.93 47.9364C73.118 48.3938 73.4812 48.757 73.9386 48.945L75.2273 49.4748C76.7576 50.1039 76.7576 52.2711 75.2273 52.9002L73.9386 53.43C73.4812 53.618 73.118 53.9812 72.93 54.4386L72.4002 55.7273C71.7711 57.2576 69.6039 57.2576 68.9748 55.7273L68.445 54.4386C68.257 53.9812 67.8938 53.618 67.4364 53.43L66.1477 52.9002C64.6174 52.2711 64.6174 50.1039 66.1477 49.4748L67.4364 48.945C67.8938 48.757 68.257 48.3938 68.445 47.9364L68.9748 46.6477Z" fill="#F0ECE9"/>
<path d="M61.5691 71.9229C63.3538 70.8206 66.014 69.401 68.8404 68.6479C71.6848 67.89 74.4452 67.8701 76.6763 69.2033C79.3652 70.8102 81.4607 72.0011 83.6829 72.3913C85.9942 72.7972 88.2424 72.3164 91.2255 71.1701C92.0613 70.8489 92.9564 71.0898 93.461 71.7068L96.3582 75.2496C97.0787 76.1305 96.781 77.2243 96.0417 77.6135C90.67 80.4419 83.8838 81.5945 76.4639 76.6479C74.6751 75.4554 72.6604 75.3773 70.8583 75.7522C69.0714 76.1239 67.3534 76.9644 65.9435 77.8186C64.5433 78.6668 62.8448 78.089 62.3708 76.9761L61.0445 73.862C60.7078 73.0716 60.982 72.2855 61.5691 71.9229Z" fill="#F0ECE9"/>
</svg>
