<svg width="18" height="11" viewBox="0 0 18 11" fill="none" xmlns="http://www.w3.org/2000/svg">
<path fill-rule="evenodd" clip-rule="evenodd" d="M16.3386 0.335938H15.3386C14.7863 0.335938 14.3386 0.783653 14.3386 1.33594V10.0026C14.3386 10.5549 14.7863 11.0026 15.3386 11.0026H16.3386C16.8909 11.0026 17.3386 10.5549 17.3386 10.0026V1.33594C17.3386 0.783653 16.8909 0.335938 16.3386 0.335938ZM10.672 2.66927H11.672C12.2243 2.66927 12.672 3.11699 12.672 3.66927V10.0026C12.672 10.5549 12.2243 11.0026 11.672 11.0026H10.672C10.1197 11.0026 9.67197 10.5549 9.67197 10.0026V3.66927C9.67197 3.11699 10.1197 2.66927 10.672 2.66927ZM7.00528 5.0026H6.00528C5.45299 5.0026 5.00528 5.45032 5.00528 6.0026V10.0026C5.00528 10.5549 5.45299 11.0026 6.00528 11.0026H7.00528C7.55756 11.0026 8.00528 10.5549 8.00528 10.0026V6.0026C8.00528 5.45032 7.55756 5.0026 7.00528 5.0026ZM2.33862 7.0026H1.33862C0.786338 7.0026 0.338623 7.45032 0.338623 8.0026V10.0026C0.338623 10.5549 0.786338 11.0026 1.33862 11.0026H2.33862C2.89091 11.0026 3.33862 10.5549 3.33862 10.0026V8.0026C3.33862 7.45032 2.89091 7.0026 2.33862 7.0026Z" fill="white"/>
</svg>
