<svg width="21" height="20" viewBox="0 0 21 20" fill="none" xmlns="http://www.w3.org/2000/svg">
<path d="M11.9416 2.925L13.4083 5.85833C13.6083 6.26666 14.1416 6.65833 14.5916 6.73333L17.2499 7.175C18.9499 7.45833 19.3499 8.69166 18.1249 9.90833L16.0583 11.975C15.7083 12.325 15.5166 13 15.6249 13.4833L16.2166 16.0417C16.6833 18.0667 15.6083 18.85 13.8166 17.7917L11.3249 16.3167C10.8749 16.05 10.1333 16.05 9.67492 16.3167L7.18326 17.7917C5.39992 18.85 4.31659 18.0583 4.78326 16.0417L5.37492 13.4833C5.48326 13 5.29159 12.325 4.94159 11.975L2.87492 9.90833C1.65826 8.69166 2.04992 7.45833 3.74992 7.175L6.40826 6.73333C6.84992 6.65833 7.38326 6.26666 7.58326 5.85833L9.04992 2.925C9.84992 1.33333 11.1499 1.33333 11.9416 2.925Z" stroke="#B0A9A2" stroke-width="1.5" stroke-linecap="round" stroke-linejoin="round"/>
</svg>
