<svg width="16" height="11" viewBox="0 0 16 11" fill="none" xmlns="http://www.w3.org/2000/svg">
<path fill-rule="evenodd" clip-rule="evenodd" d="M8.00233 2.27733C10.2182 2.27742 12.3494 3.12886 13.9553 4.65566C14.0763 4.77354 14.2696 4.77205 14.3887 4.65233L15.5447 3.48566C15.605 3.42494 15.6386 3.34269 15.6381 3.25711C15.6376 3.17153 15.603 3.08967 15.542 3.02966C11.3269 -1.00989 4.67709 -1.00989 0.461995 3.02966C0.400937 3.08963 0.366293 3.17146 0.36573 3.25704C0.365167 3.34262 0.398731 3.42489 0.458995 3.48566L1.61533 4.65233C1.73436 4.77223 1.9278 4.77372 2.04866 4.65566C3.65481 3.12876 5.78622 2.27732 8.00233 2.27733ZM8.00232 6.07299C9.21981 6.07292 10.3938 6.52545 11.2963 7.34266C11.4184 7.45864 11.6107 7.45613 11.7296 7.33699L12.8843 6.17033C12.9451 6.10913 12.9789 6.02612 12.978 5.93985C12.9771 5.85359 12.9417 5.77127 12.8797 5.71133C10.1315 3.15494 5.87552 3.15494 3.12732 5.71133C3.06524 5.77127 3.02982 5.85363 3.02901 5.93992C3.02819 6.02621 3.06205 6.10922 3.12298 6.17033L4.27732 7.33699C4.39631 7.45613 4.58859 7.45864 4.71065 7.34266C5.61252 6.52599 6.78563 6.0735 8.00232 6.07299ZM10.3153 8.62681C10.3171 8.71332 10.2831 8.79672 10.2213 8.85733L8.22399 10.873C8.16544 10.9322 8.08561 10.9656 8.00232 10.9656C7.91903 10.9656 7.8392 10.9322 7.78065 10.873L5.78299 8.85733C5.72128 8.79668 5.68733 8.71325 5.68916 8.62674C5.69099 8.54023 5.72843 8.45831 5.79265 8.40033C7.06823 7.32144 8.93642 7.32144 10.212 8.40033C10.2762 8.45836 10.3135 8.5403 10.3153 8.62681Z" fill="#1A1817"/>
</svg>
